{
    "asset" : {
        "generator" : "Khronos glTF Blender I/O v1.6.16",
        "version" : "2.0"
    },
    "scene" : 0,
    "scenes" : [
        {
            "name" : "Scene",
            "nodes" : [
                6,
                7,
                8
            ]
        }
    ],
    "nodes" : [
        {
            "mesh" : 0,
            "name" : "Object_4"
        },
        {
            "children" : [
                0
            ],
            "name" : "Obj_body_down_0"
        },
        {
            "mesh" : 1,
            "name" : "Object_6"
        },
        {
            "children" : [
                2
            ],
            "name" : "Obj_body_up_3",
            "rotation" : [
                0.5697727203369141,
                0,
                0,
                0.8218023180961609
            ],
            "translation" : [
                0,
                0.12303593009710312,
                -0.1887054741382599
            ]
        },
        {
            "children" : [
                1,
                3
            ],
            "name" : "GLTF_SceneRootNode",
            "rotation" : [
                0.7071068286895752,
                0,
                0,
                0.7071068286895752
            ]
        },
        {
            "children" : [
                4
            ],
            "name" : "root"
        },
        {
            "children" : [
                5
            ],
            "name" : "Sketchfab_model",
            "rotation" : [
                -0.9907386898994446,
                0,
                0,
                0.1357826590538025
            ],
            "scale" : [
                1.7156306505203247,
                1.7156307697296143,
                1.7156307697296143
            ]
        },
        {
            "name" : "Point",
            "translation" : [
                -0.12936925888061523,
                0.28039199113845825,
                -0.9267405271530151
            ]
        },
        {
            "name" : "Camera",
            "rotation" : [
                -0.0186857171356678,
                0.0009617373580113053,
                -0.30142608284950256,
                0.9533059597015381
            ],
            "translation" : [
                1.3529101610183716,
                1.8313833475112915,
                -0.2990129292011261
            ]
        }
    ],
    "materials" : [
        {
            "doubleSided" : true,
            "name" : "Screen",
            "pbrMetallicRoughness" : {
                "baseColorFactor" : [
                    0.012286493554711342,
                    0.012286487966775894,
                    0.012286487966775894,
                    1
                ],
                "metallicFactor" : 0,
                "roughnessFactor" : 0.5
            }
        }
    ],
    "meshes" : [
        {
            "name" : "Object_0",
            "primitives" : [
                {
                    "attributes" : {
                        "POSITION" : 0,
                        "NORMAL" : 1,
                        "TEXCOORD_0" : 2
                    },
                    "indices" : 3,
                    "material" : 0
                }
            ]
        },
        {
            "name" : "Object_1",
            "primitives" : [
                {
                    "attributes" : {
                        "POSITION" : 4,
                        "NORMAL" : 5
                    },
                    "indices" : 6,
                    "material" : 0
                }
            ]
        }
    ],
    "accessors" : [
        {
            "bufferView" : 0,
            "componentType" : 5126,
            "count" : 243,
            "max" : [
                0.20000042021274567,
                0.014999999664723873,
                0.1300005316734314
            ],
            "min" : [
                -0.2000003159046173,
                -1.4210854715202004e-13,
                -0.1300000250339508
            ],
            "type" : "VEC3"
        },
        {
            "bufferView" : 1,
            "componentType" : 5126,
            "count" : 243,
            "type" : "VEC3"
        },
        {
            "bufferView" : 2,
            "componentType" : 5126,
            "count" : 243,
            "type" : "VEC2"
        },
        {
            "bufferView" : 3,
            "componentType" : 5123,
            "count" : 276,
            "type" : "SCALAR"
        },
        {
            "bufferView" : 4,
            "componentType" : 5126,
            "count" : 429,
            "max" : [
                0.20000042021274567,
                0.014999999664723873,
                0.1300005316734314
            ],
            "min" : [
                -0.2000003159046173,
                -1.4210854715202004e-13,
                -0.1300000250339508
            ],
            "type" : "VEC3"
        },
        {
            "bufferView" : 5,
            "componentType" : 5126,
            "count" : 429,
            "type" : "VEC3"
        },
        {
            "bufferView" : 6,
            "componentType" : 5123,
            "count" : 444,
            "type" : "SCALAR"
        }
    ],
    "bufferViews" : [
        {
            "buffer" : 0,
            "byteLength" : 2916,
            "byteOffset" : 0
        },
        {
            "buffer" : 0,
            "byteLength" : 2916,
            "byteOffset" : 2916
        },
        {
            "buffer" : 0,
            "byteLength" : 1944,
            "byteOffset" : 5832
        },
        {
            "buffer" : 0,
            "byteLength" : 552,
            "byteOffset" : 7776
        },
        {
            "buffer" : 0,
            "byteLength" : 5148,
            "byteOffset" : 8328
        },
        {
            "buffer" : 0,
            "byteLength" : 5148,
            "byteOffset" : 13476
        },
        {
            "buffer" : 0,
            "byteLength" : 888,
            "byteOffset" : 18624
        }
    ],
    "buffers" : [
        {
            "byteLength" : 19512,
            "uri" : "data:application/octet-stream;base64,"
        }
    ]
}
