<svg width="23" height="28" viewBox="0 0 23 28" fill="none" xmlns="http://www.w3.org/2000/svg">
<path d="M2.70588 27.0588C1.96176 27.0588 1.32453 26.7941 0.794176 26.2646C0.264725 25.7343 0 25.0971 0 24.3529V5.41176H2.70588V24.3529H17.5882V27.0588H2.70588ZM8.11765 21.6471C7.37353 21.6471 6.73674 21.3823 6.20729 20.8529C5.67694 20.3225 5.41176 19.6853 5.41176 18.9412V2.70588C5.41176 1.96176 5.67694 1.32453 6.20729 0.794176C6.73674 0.264725 7.37353 0 8.11765 0H20.2941C21.0382 0 21.6755 0.264725 22.2058 0.794176C22.7353 1.32453 23 1.96176 23 2.70588V18.9412C23 19.6853 22.7353 20.3225 22.2058 20.8529C21.6755 21.3823 21.0382 21.6471 20.2941 21.6471H8.11765ZM8.11765 18.9412H20.2941V2.70588H8.11765V18.9412ZM8.11765 18.9412V2.70588V18.9412Z" fill="#122117"/>
</svg>
