<svg width="41" height="27" viewBox="0 0 41 27" fill="none" xmlns="http://www.w3.org/2000/svg">
<path d="M32.6531 10.1925C32.0863 7.3199 30.5397 4.7332 28.2775 2.87423C26.0154 1.01526 23.178 -0.000661909 20.25 3.23556e-07C15.3731 3.23556e-07 11.1375 2.7675 9.02812 6.8175C6.54789 7.08553 4.2542 8.26066 2.58776 10.1171C0.921326 11.9735 -0.000289747 14.3803 6.83315e-08 16.875C6.83315e-08 22.4606 4.53938 27 10.125 27H32.0625C36.72 27 40.5 23.22 40.5 18.5625C40.5 14.1075 37.0406 10.4963 32.6531 10.1925ZM32.0625 23.625H10.125C6.39563 23.625 3.375 20.6044 3.375 16.875C3.375 13.4156 5.95687 10.53 9.3825 10.1756L11.1881 9.99L12.0319 8.38688C12.8079 6.87619 13.9858 5.60894 15.4358 4.72465C16.8858 3.84037 18.5516 3.37334 20.25 3.375C24.6712 3.375 28.485 6.51375 29.3456 10.8506L29.8519 13.3819L32.4338 13.5675C33.7023 13.6528 34.8915 14.2155 35.7619 15.1423C36.6323 16.069 37.1193 17.2911 37.125 18.5625C37.125 21.3469 34.8469 23.625 32.0625 23.625ZM22.6969 10.125H17.8031V15.1875H13.5L20.25 21.9375L27 15.1875H22.6969V10.125Z" fill="#122120"/>
</svg>
